<svg width="33" height="38" viewBox="0 0 33 38" fill="none" xmlns="http://www.w3.org/2000/svg">
<path fill-rule="evenodd" clip-rule="evenodd" d="M16.5 0C10.8046 0 6.1875 4.25329 6.1875 9.5C6.1875 14.7467 10.8046 19 16.5 19C22.1954 19 26.8125 14.7467 26.8125 9.5C26.8125 4.25329 22.1954 0 16.5 0ZM10.3125 9.5C10.3125 6.35198 13.0827 3.8 16.5 3.8C19.9173 3.8 22.6875 6.35198 22.6875 9.5C22.6875 12.648 19.9173 15.2 16.5 15.2C13.0827 15.2 10.3125 12.648 10.3125 9.5Z" fill="white"/>
<path fill-rule="evenodd" clip-rule="evenodd" d="M16.5 20.9C12.0676 20.9 8.05017 22.2514 5.11138 24.1393C2.29728 25.9471 0 28.5814 0 31.35C0 32.8575 0.694226 34.1048 1.80273 35.0416C2.8519 35.9284 4.23658 36.5146 5.6937 36.9208C8.60658 37.7329 12.4648 38 16.5 38C20.5352 38 24.3934 37.7329 27.3063 36.9208C28.7634 36.5146 30.1481 35.9284 31.1973 35.0416C32.3058 34.1048 33 32.8575 33 31.35C33 28.5814 30.7027 25.9471 27.8886 24.1393C24.9498 22.2514 20.9324 20.9 16.5 20.9ZM4.125 31.35C4.125 30.4459 5.05966 28.8052 7.47091 27.2562C9.75747 25.7873 12.9588 24.7 16.5 24.7C20.0412 24.7 23.2425 25.7873 25.5291 27.2562C27.9403 28.8052 28.875 30.4459 28.875 31.35C28.875 31.6789 28.7612 31.9435 28.4086 32.2416C27.9966 32.5898 27.267 32.9616 26.1114 33.2837C23.7989 33.9284 20.4384 34.2 16.5 34.2C12.5616 34.2 9.20106 33.9284 6.88859 33.2837C5.73304 32.9616 5.00339 32.5898 4.59141 32.2416C4.23876 31.9435 4.125 31.6789 4.125 31.35Z" fill="white"/>
</svg>
