<svg width="35" height="35" viewBox="0 0 35 35" fill="none" xmlns="http://www.w3.org/2000/svg">
<g clip-path="url(#clip0_746_281)">
<path d="M17.5 35C27.165 35 35 27.165 35 17.5C35 7.83502 27.165 0 17.5 0C7.83502 0 0 7.83502 0 17.5C0 27.165 7.83502 35 17.5 35Z" fill="#F0F0F0"/>
<path d="M33.9115 23.5869C34.615 21.6911 35 19.6406 35 17.5C35 15.3594 34.615 13.3089 33.9115 11.4131H1.08849C0.385068 13.3089 0 15.3594 0 17.5C0 19.6406 0.385068 21.6911 1.08849 23.5869L17.5 25.1087L33.9115 23.5869Z" fill="#0052B4"/>
<path d="M17.4999 35C25.0243 35 31.4388 30.2509 33.9114 23.5869H1.08838C3.56101 30.2509 9.97551 35 17.4999 35Z" fill="#D80027"/>
</g>
<defs>
<clipPath id="clip0_746_281">
<rect width="35" height="35" fill="white"/>
</clipPath>
</defs>
</svg>
