<svg width="1043" height="285" viewBox="0 0 1043 285" fill="none" xmlns="http://www.w3.org/2000/svg">
<path d="M114.032 31.096C140.656 31.096 160.24 53.24 160.24 79.992C160.24 104.44 143.6 124.408 118 124.408C91.248 124.408 71.92 102.648 71.92 76.536C71.92 52.088 88.56 31.096 114.032 31.096ZM122.48 120.44C141.296 120.44 155.632 106.36 155.632 88.056C155.632 58.232 139.504 35.448 110.448 35.448C91.12 35.448 75.504 50.936 75.504 70.264C75.504 98.424 95.856 120.44 122.48 120.44ZM162.92 33.4H205.288V49.4H204.008L201.576 35.576H186.984V121.08L193 121.72V123H175.08V121.72L181.096 121.08V35.576H166.632L164.2 49.4H162.92V33.4ZM248.85 33.4H266.642V34.68L260.626 35.32V121.08L266.642 121.72V123H248.85V121.72L254.866 121.08V75.512H221.714V121.08L227.73 121.72V123H209.81V121.72L215.826 121.08V35.32L209.81 34.68V33.4H227.73V34.68L221.714 35.32V73.336H254.866V35.32L248.85 34.68V33.4ZM313.282 31.096C339.906 31.096 359.49 53.24 359.49 79.992C359.49 104.44 342.85 124.408 317.25 124.408C290.498 124.408 271.17 102.648 271.17 76.536C271.17 52.088 287.81 31.096 313.282 31.096ZM321.73 120.44C340.546 120.44 354.882 106.36 354.882 88.056C354.882 58.232 338.754 35.448 309.698 35.448C290.37 35.448 274.754 50.936 274.754 70.264C274.754 98.424 295.106 120.44 321.73 120.44ZM454.812 33.4H472.732V34.68L466.716 35.32V120.696L472.732 121.72V123H364.06V121.72L370.076 120.696V35.32L364.06 34.68V33.4H381.98V34.68L375.964 35.32V120.696H415.516V35.32L409.5 34.68V33.4H427.42V34.68L421.276 35.32L421.404 120.696H460.828V35.32L454.812 34.68V33.4ZM477.81 33.4H508.914V49.528H507.762L505.586 35.576H489.714V67.96H497.778L498.674 58.488H500.082L500.338 82.168H498.93L497.778 70.136H489.714V121.08H504.946L506.61 108.28H508.018V123H477.81V121.72L483.826 121.08V35.576L477.81 34.68V33.4ZM552.475 33.4H570.267V34.68L564.251 35.32V121.08L570.267 121.72V123H552.475V121.72L558.491 121.08V75.512H525.339V121.08L531.355 121.72V123H513.435V121.72L519.451 121.08V35.32L513.435 34.68V33.4H531.355V34.68L525.339 35.32V73.336H558.491V35.32L552.475 34.68V33.4ZM586.059 123H575.435V121.72L581.451 121.08V35.32L575.435 34.68V33.4H593.355V34.68L587.339 35.32V115.064L638.539 33.4H649.163V34.68L643.147 35.32V121.08L649.163 121.72V123H631.243V121.72L637.259 121.08V41.336L586.059 123ZM666.086 55.032C666.086 44.792 669.158 33.4 683.878 33.4H697.062V34.68L691.046 35.32V121.08L697.062 121.72V123H679.142V121.72L685.158 121.08V79.352C669.414 79.352 672.358 99.192 668.646 110.84C665.062 122.104 658.534 124.664 656.998 124.664C655.462 124.664 653.542 124.152 652.902 122.744C652.39 121.592 653.286 118.776 653.286 118.776C653.286 118.776 654.438 123 656.742 123C658.79 123 661.478 121.72 664.294 112.12C668.774 98.04 663.014 79.736 682.598 77.816C673.126 77.176 666.086 67.96 666.086 55.032ZM683.878 76.024H685.158V35.192H683.878C674.15 35.192 671.59 44.408 671.974 55.416C672.358 67.704 675.558 76.024 683.878 76.024Z" fill="#FFFAFA"/>
<path d="M608.112 156.4H626.032V157.68L620.016 158.32V244.08L626.032 244.72V246H608.112V244.72L614.128 244.08V198.512H564.464V244.08L570.48 244.72V246H552.56V244.72L558.576 244.08V158.32L552.56 157.68V156.4H570.48V157.68L564.464 158.32V196.336H614.128V158.32L608.112 157.68V156.4ZM680.081 153.712L721.297 244.08L726.801 244.848V246H708.881V244.848L714.257 244.464L694.929 201.072H660.625L640.657 244.08L648.465 244.72V246H630.545V244.848L638.225 244.08L680.081 153.712ZM678.161 163.44L661.777 198.64H693.905L678.161 163.44ZM763.92 156.4H826V172.528H824.72L822.288 158.576H797.584V244.08L803.6 244.72V246H785.68V244.72L791.696 244.08V158.576H767.632L765.2 172.528H763.92V156.4ZM863.956 153.712L905.172 244.08L910.676 244.848V246H892.756V244.848L898.132 244.464L878.804 201.072H844.5L824.532 244.08L832.34 244.72V246H814.42V244.848L822.1 244.08L863.956 153.712ZM862.036 163.44L845.652 198.64H877.78L862.036 163.44ZM946.161 177.904C946.161 189.168 941.297 200.688 928.241 200.688H927.089V244.08L933.105 244.72V246H915.185V244.72L921.201 244.08V158.32L915.185 157.68V156.4H928.369C939.377 156.4 946.161 166.512 946.161 177.904ZM927.089 198.768H928.241C940.401 198.768 940.401 187.12 940.273 177.904C940.145 168.304 938.225 158.192 928.241 158.192H927.089V198.768ZM994.032 154.096C1020.66 154.096 1040.24 176.24 1040.24 202.992C1040.24 227.44 1023.6 247.408 998 247.408C971.248 247.408 951.92 225.648 951.92 199.536C951.92 175.088 968.56 154.096 994.032 154.096ZM1002.48 243.44C1021.3 243.44 1035.63 229.36 1035.63 211.056C1035.63 181.232 1019.5 158.448 990.448 158.448C971.12 158.448 955.504 173.936 955.504 193.264C955.504 221.424 975.856 243.44 1002.48 243.44Z" fill="#FFFAFA"/>
<path fill-rule="evenodd" clip-rule="evenodd" d="M1002.75 189C999.729 189 997.296 190.669 995.472 192.838C993.699 190.595 991.271 189 988.25 189C983.996 189 981 192.658 981 196.647C981 198.787 981.876 200.327 982.836 201.775L994.103 215.284C995.368 216.47 995.607 216.47 996.871 215.284L1008.16 201.775C1009.29 200.327 1010 198.787 1010 196.647C1010 192.658 1007 189 1002.75 189Z" fill="#FF8EBF"/>
<path fill-rule="evenodd" clip-rule="evenodd" d="M775.988 8.56686C772.616 7.37714 769.241 8.28261 766.35 9.98551C765.254 6.78289 763.171 4.04534 759.798 2.85562C755.048 1.18009 750.262 4.08397 748.691 8.5383C747.848 10.9274 748.22 12.9927 748.721 14.9878L755.981 34.509C756.926 36.3315 757.193 36.4257 759.072 35.5991L777.001 24.9639C778.833 23.7916 780.229 22.3498 781.072 19.9608C782.643 15.5065 780.738 10.2424 775.988 8.56686Z" fill="#FF8EBF"/>
<path fill-rule="evenodd" clip-rule="evenodd" d="M488.988 172.567C485.616 171.377 482.241 172.283 479.35 173.986C478.254 170.783 476.171 168.045 472.798 166.856C468.048 165.18 463.262 168.084 461.691 172.538C460.848 174.927 461.22 176.993 461.721 178.988L468.981 198.509C469.926 200.331 470.193 200.426 472.072 199.599L490.001 188.964C491.833 187.792 493.229 186.35 494.072 183.961C495.643 179.506 493.738 174.242 488.988 172.567Z" fill="#FF8EBF"/>
<path fill-rule="evenodd" clip-rule="evenodd" d="M25.6393 125.345C22.0787 126.322 19.7501 129.076 18.301 132.223C15.486 130.152 12.1071 129.057 8.54645 130.034C3.53182 131.41 1.18292 136.691 2.47311 141.393C3.1651 143.916 4.69641 145.448 6.2961 146.845L23.9472 159.125C25.8211 160.115 26.1032 160.037 27.2098 158.23L36.1531 138.654C37.0159 136.581 37.3509 134.537 36.6589 132.014C35.3687 127.312 30.654 123.969 25.6393 125.345Z" fill="#FF8EBF"/>
</svg>
