<svg width="586" height="127" viewBox="0 0 586 127" fill="none" xmlns="http://www.w3.org/2000/svg">
<g clip-path="url(#clip0_857_42)">
<path fill-rule="evenodd" clip-rule="evenodd" d="M576.918 6.08169C573.533 5.37813 570.418 6.68207 567.868 8.68746C566.404 5.76098 564.054 3.40783 560.669 2.70427C555.901 1.71342 551.692 5.11448 550.763 9.58512C550.264 11.9829 550.888 13.9136 551.626 15.76L561.106 33.5229C562.247 35.1468 562.515 35.2025 564.208 34.1676L580.01 21.6595C581.612 20.2996 582.763 18.7378 583.262 16.34C584.191 11.8693 581.685 7.07254 576.918 6.08169Z" fill="#FF8EBF"/>
</g>
<g clip-path="url(#clip1_857_42)">
<path fill-rule="evenodd" clip-rule="evenodd" d="M24.7379 88.8771C21.3347 89.6503 19.0205 92.154 17.5203 95.0644C14.9489 92.9911 11.8041 91.8158 8.40092 92.589C3.60805 93.678 1.16876 98.566 2.19 103.061C2.73775 105.471 4.11951 106.983 5.57154 108.369L21.7245 120.704C23.4526 121.717 23.7222 121.656 24.8429 119.996L34.1082 101.885C35.0097 99.9643 35.4117 98.0476 34.864 95.6368C33.8427 91.1421 29.5308 87.7881 24.7379 88.8771Z" fill="#FF8EBF"/>
</g>
<path d="M70 23H127.3V24L122.6 24.7L122.7 91.5L127.3 92V93H113.4V92L118.1 91.5V24.6H79.3V91.5L84 92V93H70V92L74.7 91.5V24.5L70 24V23ZM155.528 39.8C155.528 48.6 151.728 57.6 141.528 57.6H140.628V91.5L145.328 92V93H131.328V92L136.028 91.5V24.5L131.328 24V23H141.628C150.228 23 155.528 30.9 155.528 39.8ZM140.628 56.1H141.528C151.028 56.1 151.028 47 150.928 39.8C150.828 32.3 149.328 24.4 141.528 24.4H140.628V56.1ZM192.927 21.2C213.727 21.2 229.027 38.5 229.027 59.4C229.027 78.5 216.027 94.1 196.027 94.1C175.127 94.1 160.027 77.1 160.027 56.7C160.027 37.6 173.027 21.2 192.927 21.2ZM199.527 91C214.227 91 225.427 80 225.427 65.7C225.427 42.4 212.827 24.6 190.127 24.6C175.027 24.6 162.827 36.7 162.827 51.8C162.827 73.8 178.727 91 199.527 91ZM240.921 24.5V56.3H241.921C248.721 56.3 250.921 48.8 250.921 40C250.921 34.2 251.821 24.5 241.921 24.5H240.921ZM245.021 57C252.221 59.1 255.721 65.8 255.721 74.3C255.721 83.5 253.021 93 241.921 93H231.621V92L236.321 91.5V24.5L231.621 24V23H241.921C251.921 23 255.521 30.6 255.521 39.6C255.521 47.9 252.821 55.1 245.021 57ZM240.921 91.6H241.921C251.221 91.6 251.121 80.6 251.121 74.8C251.121 69.1 250.021 58 241.921 58H240.921V91.6ZM259.258 23H283.558V35.6H282.658L280.958 24.7H268.558V50H274.858L275.558 42.6H276.658L276.858 61.1H275.758L274.858 51.7H268.558V91.5H280.458L281.758 81.5H282.858V93H259.258V92L263.958 91.5V24.7L259.258 24V23ZM311.29 39.8C311.29 48.6 307.49 57.6 297.29 57.6H296.39V91.5L301.09 92V93H287.09V92L291.79 91.5V24.5L287.09 24V23H297.39C305.99 23 311.29 30.9 311.29 39.8ZM296.39 56.1H297.29C306.79 56.1 306.79 47 306.69 39.8C306.59 32.3 305.09 24.4 297.29 24.4H296.39V56.1ZM325.413 93H315.313V92L320.013 91.5V24.5L315.313 24V23H329.313V24L324.613 24.5V56.3H325.313C334.713 56.3 339.613 65 339.613 73.6C339.613 84.7 334.913 93 325.413 93ZM324.613 91.5H325.313C334.013 91.5 335.013 84.8 335.013 73.9C335.013 65.4 332.713 57.8 325.313 57.8H324.613V91.5ZM427.833 86.1L428.433 80.8C425.233 86.1 414.533 94 400.433 94C386.433 94 369.933 82.3 368.333 61.5C366.533 37.9 383.033 21.8 403.433 21.7C412.533 21.7 420.533 25.8 424.233 29.1L422.833 24.5L423.533 24.2L428.333 34.1L427.433 34.6C422.933 26.8 410.433 23.1 402.433 23.1C386.733 23.1 372.933 36.1 372.933 55.3C372.933 74.4 384.333 91.6 404.433 91.6C414.033 91.6 426.733 84.2 430.133 74.8L431.133 75.1L428.733 86.3L427.833 86.1ZM434.16 23H458.46V35.6H457.56L455.86 24.7H443.46V50H449.76L450.46 42.6H451.56L451.76 61.1H450.66L449.76 51.7H443.46V91.5H455.36L456.66 81.5H457.76V93H434.16V92L438.86 91.5V24.7L434.16 24V23ZM486.292 74.1C486.292 86 481.392 93 472.192 93H461.992V92L466.692 91.4V24.7L461.992 24V23H487.492V35.5H486.492L484.592 24.7H471.292V56.2H472.292C479.492 56.2 486.292 62.3 486.292 74.1ZM471.192 91.5H472.192C481.092 91.5 481.892 82.8 481.692 74.1C481.592 65.9 480.292 57.7 472.292 57.7H471.292L471.192 91.5ZM500.196 39.9C500.196 31.9 502.596 23 514.096 23H524.396V24L519.696 24.5V91.5L524.396 92V93H510.396V92L515.096 91.5V58.9C502.796 58.9 505.096 74.4 502.196 83.5C499.396 92.3 494.296 94.3 493.096 94.3C491.896 94.3 490.396 93.9 489.896 92.8C489.496 91.9 490.196 89.7 490.196 89.7C490.196 89.7 491.096 93 492.896 93C494.496 93 496.596 92 498.796 84.5C502.296 73.5 497.796 59.2 513.096 57.7C505.696 57.2 500.196 50 500.196 39.9ZM514.096 56.3H515.096V24.4H514.096C506.496 24.4 504.496 31.6 504.796 40.2C505.096 49.8 507.596 56.3 514.096 56.3Z" fill="white"/>
<defs>
<clipPath id="clip0_857_42">
<rect width="33.1935" height="33.1935" fill="white" transform="translate(552.755) rotate(11.7416)"/>
</clipPath>
<clipPath id="clip1_857_42">
<rect width="33.5068" height="33.5068" fill="white" transform="translate(0 93.4239) rotate(-12.8009)"/>
</clipPath>
</defs>
</svg>
