<svg width="37" height="37" viewBox="0 0 37 37" fill="none" xmlns="http://www.w3.org/2000/svg">
<path d="M11.1 24.05C10.0783 24.05 9.25 24.8783 9.25 25.9C9.25 32.0304 14.2196 37 20.35 37H25.9C32.0304 37 37 32.0304 37 25.9V11.1C37 4.96964 32.0304 0 25.9 0H20.35C14.2196 0 9.25 4.96964 9.25 11.1C9.25 12.1217 10.0783 12.95 11.1 12.95C12.1217 12.95 12.95 12.1217 12.95 11.1C12.95 7.01309 16.2631 3.7 20.35 3.7L25.9 3.7C29.9869 3.7 33.3 7.01309 33.3 11.1V25.9C33.3 29.9869 29.9869 33.3 25.9 33.3H20.35C16.2631 33.3 12.95 29.9869 12.95 25.9C12.95 24.8783 12.1217 24.05 11.1 24.05Z" fill="white"/>
<path d="M17.1919 25.3581C17.9143 26.0806 19.0857 26.0806 19.8081 25.3581L25.3581 19.8081C26.0806 19.0857 26.0806 17.9143 25.3581 17.1919L19.8081 11.6419C19.0857 10.9194 17.9143 10.9194 17.1919 11.6419C16.4694 12.3643 16.4694 13.5357 17.1919 14.2581L19.5837 16.65H1.85C0.828273 16.65 0 17.4783 0 18.5C0 19.5217 0.828273 20.35 1.85 20.35H19.5837L17.1919 22.7419C16.4694 23.4643 16.4694 24.6357 17.1919 25.3581Z" fill="white"/>
</svg>
