<svg width="35" height="35" viewBox="0 0 35 35" fill="none" xmlns="http://www.w3.org/2000/svg">
<path d="M0 35L2.3947 26.0123C0.916999 23.3815 0.140531 20.3992 0.14195 17.341C0.146209 7.78021 7.71926 0 17.0241 0C21.5395 0.00145833 25.7782 1.80833 28.9664 5.08667C32.1532 8.365 33.9077 12.7225 33.9062 17.3571C33.902 26.9194 26.3289 34.6996 17.0241 34.6996C14.1993 34.6981 11.4156 33.9704 8.94997 32.5879L0 35ZM9.36446 29.4481C11.7435 30.8992 14.0148 31.7683 17.0184 31.7698C24.7519 31.7698 31.0516 25.3035 31.0559 17.3542C31.0587 9.38875 24.7888 2.93125 17.0298 2.92833C9.29065 2.92833 2.99515 9.39458 2.99231 17.3425C2.99089 20.5873 3.91641 23.0169 5.47076 25.5588L4.05268 30.8787L9.36446 29.4481ZM25.5283 21.4798C25.4233 21.299 25.1422 21.191 24.7192 20.9738C24.2976 20.7565 22.2237 19.7079 21.8362 19.5635C21.4501 19.4192 21.169 19.3463 20.8866 19.7808C20.6055 20.214 19.7964 21.191 19.5508 21.4798C19.3052 21.7685 19.0582 21.805 18.6367 21.5877C18.2151 21.3704 16.8552 20.914 15.244 19.4367C13.9906 18.2875 13.1432 16.8685 12.8976 16.434C12.652 16.0008 12.8721 15.766 13.0821 15.5502C13.2724 15.3563 13.5037 15.0442 13.7152 14.7904C13.9296 14.5396 13.9991 14.3588 14.1411 14.0685C14.2816 13.7798 14.2121 13.526 14.1056 13.3088C13.9991 13.0929 13.156 10.9594 12.8053 10.0917C12.4618 9.24729 12.114 9.36104 11.8557 9.34792L11.0466 9.33333C10.7655 9.33333 10.3084 9.44125 9.92233 9.87583C9.53622 10.3104 8.44604 11.3575 8.44604 13.491C8.44604 15.6246 9.95781 17.6852 10.1679 17.974C10.3794 18.2627 13.1418 22.6406 17.3733 24.5175C18.3797 24.9638 19.1661 25.2306 19.7779 25.4304C20.7886 25.76 21.7085 25.7133 22.4352 25.6025C23.2458 25.4785 24.9307 24.554 25.2828 23.5419C25.6348 22.5283 25.6348 21.6606 25.5283 21.4798Z" fill="white"/>
</svg>
